<svg xmlns="http://www.w3.org/2000/svg" viewBox="0 0 430 88">
    <path d="M177.96387 16.443359v9.360352q-4.48242-4.174805-9.58008-6.240234-5.05371-2.06543-10.7666-2.06543-11.25 0-17.22657 6.899414-5.97656 6.855469-5.97656 19.863281 0 12.963867 5.97656 19.863281 5.97657 6.855469 17.22657 6.855469 5.71289 0 10.7666-2.06543 5.09766-2.065429 9.58008-6.240234v9.272461q-4.65821 3.164063-9.8877 4.746094-5.18555 1.582031-10.98633 1.582031-14.89746 0-23.46679-9.09668-8.56934-9.140625-8.56934-24.916992 0-15.820312 8.56934-24.916992 8.56933-9.140625 23.46679-9.140625 5.88868 0 11.07422 1.582031 5.22949 1.538086 9.79981 4.658203zm13.44726-7.8222652h8.08594V77h-8.08594zm47.3291 43.6376952q-9.7998 0-13.5791 2.241211-3.77929 2.241211-3.77929 7.646484 0 4.306641 2.8125 6.855469 2.85644 2.504883 7.73437 2.504883 6.72363 0 10.7666-4.746094 4.08692-4.790039 4.08692-12.700195v-1.801758zm16.12793-3.339844V77h-8.08593v-7.470703q-2.76856 4.482422-6.89942 6.635742-4.13086 2.109375-10.10742 2.109375-7.55859 0-12.04102-4.21875-4.43847-4.262695-4.43847-11.381836 0-8.305664 5.53711-12.524414 5.58105-4.21875 16.61133-4.21875h11.33789v-.791016q0-5.581054-3.69141-8.613281-3.64746-3.076172-10.2832-3.076172-4.21875 0-8.21778 1.010742-3.99902 1.010743-7.69043 3.032227v-7.470703q4.43848-1.713867 8.61329-2.548828 4.1748-.878906 8.12988-.878906 10.67871 0 15.95215 5.537109 5.27343 5.537109 5.27343 16.787109zm45.21973-13.579101q-1.3623-.791016-2.98828-1.142578-1.58203-.395508-3.51563-.395508-6.85546 0-10.54687 4.482422-3.64746 4.438476-3.64746 12.788086V77h-8.12988V27.78125h8.12988v7.646484q2.54883-4.482422 6.63574-6.635742 4.08691-2.197265 9.93164-2.197265.83496 0 1.8457.131835 1.01075.08789 2.24122.307618zm8.56934-7.558594h8.08593V77h-8.08593zm0-19.1601562h8.08593V18.860352h-8.08593zm32.95898 5.1855472V27.78125h16.65527v6.28418h-16.65527v26.71875q0 6.020507 1.62598 7.734375 1.66992 1.713867 6.72363 1.713867h8.30566V77h-8.30566q-9.36035 0-12.91992-3.47168-3.55957-3.515625-3.55957-12.74414V34.06543h-5.93262v-6.28418h5.93262V13.806641zm47.8125 67.763671q-3.42773 8.789063-6.67969 11.469727-3.25195 2.680664-8.70117 2.680664h-6.45996v-6.767578h4.74609q3.33985 0 5.18555-1.582031 1.8457-1.582032 4.08692-7.470703l1.45019-3.691407-19.90723-48.427734h8.56934l15.38086 38.496094 15.38086-38.496094h8.56933z"
          aria-label="Clarity" font-weight="500" font-size="90" font-family="Muli" fill="#e4e7ea"/>
    <path fill="#7a90ff" d="M5 13.106138h91.390343v13.2H5zm0 25h91.390343v13.2H5zm0 26h91.390343v13.2H5z"/>
</svg>
